<svg xmlns="http://www.w3.org/2000/svg" width="24" height="24" viewBox="0 0 24 24">
  <g id="组_3" data-name="组 3" transform="translate(-394 -289)" opacity="0.32">
    <g id="组_3-2" data-name="组 3" transform="translate(394 289)">
      <rect id="矩形_9" data-name="矩形 9" width="24" height="24" fill="none"/>
      <path id="路径_1" data-name="路径 1" d="M1,112.125H3l3.335-2.931a1,1,0,0,1,1.657.751v10a1,1,0,0,1-1.644.762L3,117.871H1a1,1,0,0,1-1-1v-3.749a1,1,0,0,1,1-1Zm.5,4.248H3a1.5,1.5,0,0,1,.968.355L6.49,118.87v-7.823l-2.506,2.2a1.5,1.5,0,0,1-.988.373H1.5Zm9.518,2.718a.749.749,0,0,1-1.058-1.058,4.243,4.243,0,0,0,0-6,.749.749,0,1,1,1.058-1.06,5.741,5.741,0,0,1,0,8.119Zm2.119,2.118a.749.749,0,1,1-1.059-1.058,7.238,7.238,0,0,0,0-10.237.749.749,0,0,1,1.058-1.058,8.736,8.736,0,0,1,0,12.353Z" transform="translate(4.5 -103.404)" fill="#595959"/>
    </g>
  </g>
</svg>
