<svg xmlns="http://www.w3.org/2000/svg" width="56" height="56" viewBox="0 0 56 56">
  <g id="组_87" data-name="组 87" transform="translate(131 -2555)">
    <g id="组_86" data-name="组 86" transform="translate(-125 2557)" opacity="0.2">
      <path id="路径_21" data-name="路径 21" d="M415.312,345.951l3.75-11.569a3.7,3.7,0,0,1,3.519-2.581h5.75A3.65,3.65,0,0,1,431,333.006c.131.175.269.344.413.5a3.559,3.559,0,0,1,.219.438,5.519,5.519,0,0,0-3.425,3.531l-3.75,11.563a4.025,4.025,0,0,0,.106,2.775v10.669a2.225,2.225,0,1,1-4.45,0V345.357l-.625,1.963a2.194,2.194,0,0,1-2.088,1.531,2.161,2.161,0,0,1-.681-.113,2.206,2.206,0,0,1-1.513-1.919A2.3,2.3,0,0,1,415.312,345.951Z" transform="translate(-403.096 -317.064)" fill="#d0e2fe"/>
      <path id="路径_22" data-name="路径 22" d="M435.95,186.195a3.308,3.308,0,0,0,.831-.088v10.625a1.793,1.793,0,0,1-.575.131,2.175,2.175,0,0,1-2.019-2.306V185.62a3.892,3.892,0,0,0,.625.369A3.231,3.231,0,0,0,435.95,186.195Zm-.662-25.089a4.756,4.756,0,1,1,3.225-4.488A4.757,4.757,0,0,1,435.287,161.106Z" transform="translate(-410.84 -148.358)" fill="#d0e2fe"/>
      <path id="路径_23" data-name="路径 23" d="M167.108,130.4a3.038,3.038,0,0,0,.819-.106v10.663a1.613,1.613,0,0,1-.575.131,2.175,2.175,0,0,1-2.019-2.306v-8.957a3.343,3.343,0,0,0,.625.369A3.168,3.168,0,0,0,167.108,130.4Zm-14.638-8.95,3.75-11.569a3.7,3.7,0,0,1,3.525-2.575h5.744a3.65,3.65,0,0,1,2.675,1.206c.125.169.262.338.406.5a4.686,4.686,0,0,1,.225.431,5.519,5.519,0,0,0-3.431,3.531l-3.75,11.563a4.1,4.1,0,0,0,.1,2.781v10.663a2.225,2.225,0,1,1-4.444,0V120.865l-.625,1.956a2.194,2.194,0,0,1-2.088,1.531,2.376,2.376,0,0,1-.681-.106,2.225,2.225,0,0,1-1.506-1.919A2.188,2.188,0,0,1,152.47,121.452ZM164.7,105.3a4.375,4.375,0,0,1-3.056,0,4.756,4.756,0,1,1,3.056,0Zm15.763,12.388a3.75,3.75,0,0,1,3.569-2.581h5.832a3.75,3.75,0,0,1,3.569,2.581l3.781,11.569a2.157,2.157,0,0,1,.1.869,2.206,2.206,0,0,1-1.525,1.919,2.181,2.181,0,0,1-.694.113,2.219,2.219,0,0,1-2.113-1.531l-.625-1.963v17.126a2.25,2.25,0,1,1-4.5,0v-13.4h-1.781v13.4a2.25,2.25,0,1,1-4.5,0V128.659l-.625,1.963a2.219,2.219,0,0,1-2.113,1.531,2.113,2.113,0,0,1-.688-.113,2.206,2.206,0,0,1-1.531-1.919,2.156,2.156,0,0,1,.1-.869Zm8.45-4.588a4.375,4.375,0,0,1-3.063,0,4.75,4.75,0,1,1,3.063,0Z" transform="translate(-152.362 -96.035)" fill="#3f86ff"/>
    </g>
    <rect id="矩形_276" data-name="矩形 276" width="56" height="56" transform="translate(-131 2555)" fill="none"/>
  </g>
</svg>
