<svg xmlns="http://www.w3.org/2000/svg" width="32" height="32" viewBox="0 0 32 32">
  <g id="组_23" data-name="组 23" transform="translate(-921.881 -1110.881)">
    <rect id="矩形_48" data-name="矩形 48" width="32" height="32" transform="translate(921.881 1110.881)" fill="none"/>
    <path id="Fill_1" data-name="Fill 1" d="M12.951,19.128a.989.989,0,0,1-.664-.328,3.163,3.163,0,0,0-2.231-1.03,2.917,2.917,0,0,0-2.229.983,1.1,1.1,0,0,1-.759.328H6.926a.316.316,0,0,1-.127-.029.173.173,0,0,0-.062-.017,8.764,8.764,0,0,1-3.274-1.92.894.894,0,0,1-.284-1.03A2.828,2.828,0,0,0,2.895,13.7,2.874,2.874,0,0,0,.949,12.244H.9a.894.894,0,0,1-.712-.8A8.146,8.146,0,0,1,0,9.574a9.441,9.441,0,0,1,.19-1.92V7.607a1.3,1.3,0,0,1,.617-.7c.047-.047.047-.047.1-.047A3.2,3.2,0,0,0,2.846,5.452a3.19,3.19,0,0,0,.285-2.482A.884.884,0,0,1,3.464,1.94,12.29,12.29,0,0,1,6.642.066,1.189,1.189,0,0,1,7.013,0a.931.931,0,0,1,.673.3,3.2,3.2,0,0,0,2.23,1.03,2.766,2.766,0,0,0,2.23-.984A1.059,1.059,0,0,1,12.879,0a.789.789,0,0,1,.309.063,8.858,8.858,0,0,1,3.226,1.92.891.891,0,0,1,.285,1.03,2.824,2.824,0,0,0,.284,2.39,2.884,2.884,0,0,0,1.945,1.452h.047a.893.893,0,0,1,.712.8,12.458,12.458,0,0,1,.237,1.92,9.4,9.4,0,0,1-.19,1.92v.047a1.309,1.309,0,0,1-.617.7c-.047.046-.047.046-.1.046a3.036,3.036,0,0,0-2.23,3.888.859.859,0,0,1-.332,1.03,12.29,12.29,0,0,1-3.178,1.873A.821.821,0,0,1,12.951,19.128ZM9.785,6.5a3.251,3.251,0,1,0,0,6.5,3.251,3.251,0,1,0,0-6.5Z" transform="translate(927.978 1117.775)" fill="none" stroke="#fff" stroke-miterlimit="10" stroke-width="1.5"/>
  </g>
</svg>
