<svg xmlns="http://www.w3.org/2000/svg" width="40" height="40" viewBox="0 0 40 40">
  <g id="组_85" data-name="组 85" transform="translate(189 -1276)">
    <g id="组_84" data-name="组 84">
      <g id="组_83" data-name="组 83" transform="translate(-184 1283)">
        <path id="路径_19" data-name="路径 19" d="M30.285,95.957,23.414,85.894a1.269,1.269,0,0,0-1.049-.554H8.147a1.27,1.27,0,0,0-1.049.554L.226,95.957a1.271,1.271,0,0,0,.147,1.612l13.98,14.085a1.272,1.272,0,0,0,1.8,0l13.98-14.085A1.271,1.271,0,0,0,30.285,95.957Zm-15.03,13L2.917,96.523l5.9-8.641H21.694l5.9,8.641Z" transform="translate(-0.005 -85.34)" fill="#ff4c4c"/>
        <path id="路径_20" data-name="路径 20" d="M322.913,313.89a1.269,1.269,0,0,0-1.748.416l-3.616,5.881-3.617-5.881a1.271,1.271,0,0,0-2.165,1.332l4.7,7.64a1.27,1.27,0,0,0,2.164,0l4.7-7.64A1.27,1.27,0,0,0,322.913,313.89Z" transform="translate(-302.297 -306.899)" fill="#ff4c4c"/>
      </g>
      <rect id="矩形_275" data-name="矩形 275" width="40" height="40" transform="translate(-189 1276)" fill="none"/>
    </g>
  </g>
</svg>
