<svg xmlns="http://www.w3.org/2000/svg" width="12.51" height="12.51" viewBox="0 0 12.51 12.51">
  <g id="组_42" data-name="组 42" transform="translate(-3.18 -6.36)">
    <path id="路径_46" data-name="路径 46" d="M9.435,7.142a5.473,5.473,0,1,1-5.473,5.473A5.439,5.439,0,0,1,9.435,7.142m0-.782a6.255,6.255,0,1,0,6.255,6.255A6.273,6.273,0,0,0,9.435,6.36Z" transform="translate(0)" fill="#fff"/>
    <path id="路径_47" data-name="路径 47" d="M449.18,212.625a.722.722,0,0,0-.782.7v3.362a.786.786,0,0,0,1.564,0v-3.362A.722.722,0,0,0,449.18,212.625Zm0-1.173a.782.782,0,1,0-.782-.782A.739.739,0,0,0,449.18,211.452Z" transform="translate(-439.745 -201.026)" fill="#fff"/>
  </g>
</svg>
