<svg xmlns="http://www.w3.org/2000/svg" width="40" height="40" viewBox="0 0 40 40">
  <g id="组_20" data-name="组 20" transform="translate(-234 -679)">
    <rect id="矩形_40" data-name="矩形 40" width="40" height="40" transform="translate(234 679)" fill="#fff"/>
    <path id="Fill_1" data-name="Fill 1" d="M13.156,24H3.547a4.326,4.326,0,0,1-1.378-.242,3.739,3.739,0,0,1-1.134-.676A3.651,3.651,0,0,1,.3,22.115,2.567,2.567,0,0,1,0,20.908V3.137A2.555,2.555,0,0,1,.3,1.932,3.858,3.858,0,0,1,1.035.917,3.9,3.9,0,0,1,2.168.24,4.326,4.326,0,0,1,3.547,0h9.511a4.338,4.338,0,0,1,1.378.242A3.364,3.364,0,0,1,15.57.917a3.866,3.866,0,0,1,.739,1.015,2.575,2.575,0,0,1,.3,1.207V20.86a5.03,5.03,0,0,1-.174,1.156l-.023.1a4.547,4.547,0,0,1-.739.967,3.371,3.371,0,0,1-1.134.678A4.31,4.31,0,0,1,13.156,24Zm-5.09-3.652a1.32,1.32,0,0,0-.911.381,1.285,1.285,0,0,0-.409.948,1.364,1.364,0,0,0,.409.9,1.24,1.24,0,0,0,.884.379h.026a1.321,1.321,0,0,0,.909-.379,1.215,1.215,0,0,0,.365-.9,1.346,1.346,0,0,0-.365-.948A1.242,1.242,0,0,0,8.066,20.347ZM2.076,4.7v15.13H14.527l0-15.13ZM6.663,2.087a.58.58,0,0,0-.282.115.439.439,0,0,0-.142.407.59.59,0,0,0,.142.406.593.593,0,0,0,.282.115h3.29a.58.58,0,0,0,.278-.113l0,0a.7.7,0,0,0,.142-.406.593.593,0,0,0-.142-.407.588.588,0,0,0-.282-.115H6.663Z" transform="translate(246 687)" fill="#eb6b59"/>
  </g>
</svg>
