<svg xmlns="http://www.w3.org/2000/svg" width="32" height="32" viewBox="0 0 32 32">
  <g id="组_6" data-name="组 6" transform="translate(-116 -1343)">
    <g id="编组_8" data-name="编组 8" transform="translate(120 1348.6)">
      <g id="Fill_1" data-name="Fill 1" transform="translate(0 0)" fill="none" stroke-miterlimit="10">
        <path d="M22.222,18.646A2.612,2.612,0,0,1,17.2,18.9H7.006a2.612,2.612,0,0,1-5.021-.254A3.3,3.3,0,0,1,.009,15.334l.25-3.4A3.749,3.749,0,0,1,2.436,8.816l1.1-5.3A4.553,4.553,0,0,1,7.772,0h8.665a4.55,4.55,0,0,1,4.235,3.515l1.1,5.3a3.751,3.751,0,0,1,2.178,3.117l.249,3.4A3.3,3.3,0,0,1,22.222,18.646Z" stroke="none"/>
        <path d="M 19.6733570098877 19.17607879638672 C 20.1867561340332 19.17607879638672 20.63632583618164 18.80936813354492 20.76664733886719 18.28429794311523 L 20.94801712036133 17.55350875854492 L 21.64240646362305 17.2623176574707 C 22.33438682556152 16.97213935852051 22.7602367401123 16.24080848693848 22.70211601257324 15.44307804107666 L 22.45296669006348 12.04187870025635 C 22.39512634277344 11.24671840667725 21.88290596008301 10.51606845855713 21.14804649353027 10.18043804168701 L 20.45686721801758 9.864758491516113 L 19.20256614685059 3.819358348846436 C 18.94647598266602 2.583808422088623 17.6539363861084 1.499998450279236 16.43651580810547 1.499998450279236 L 7.77177619934082 1.499998450279236 C 6.554546356201172 1.499998450279236 5.261546611785889 2.584148406982422 5.004836559295654 3.819668531417847 L 3.750606298446655 9.864748001098633 L 3.059426307678223 10.18042850494385 C 2.324576377868652 10.51605796813965 1.812716364860535 11.24635887145996 1.755256414413452 12.04298877716064 L 1.505406379699707 15.44247817993164 C 1.447256445884705 16.2406177520752 1.873436450958252 16.97194862365723 2.565876483917236 17.2623176574707 L 3.259716510772705 17.55326843261719 L 3.441416501998901 18.28336906433105 C 3.572226524353027 18.80897903442383 4.021556377410889 19.17607879638672 4.534116268157959 19.17607879638672 C 5.011396408081055 19.17607879638672 5.42625617980957 18.87259864807129 5.591006278991699 18.40292930603027 L 5.943016529083252 17.39944839477539 L 18.26503562927246 17.39944839477539 L 18.6171760559082 18.40262794494629 C 18.7821159362793 18.87247848510742 19.19668579101562 19.17607879638672 19.6733570098877 19.17607879638672 M 19.6733570098877 20.67607879638672 C 18.53751564025879 20.67607879638672 17.57003593444824 19.94833755493164 17.20184707641602 18.89944839477539 L 7.006446361541748 18.89944839477539 C 6.638226509094238 19.94913864135742 5.669946193695068 20.67607879638672 4.534116268157959 20.67607879638672 C 3.31049633026123 20.67607879638672 2.278046369552612 19.81984901428223 1.985816359519958 18.6456184387207 C 0.7136263847351074 18.11214828491211 -0.09712358564138412 16.79533767700195 0.00936641450971365 15.33349800109863 L 0.2592864036560059 11.93303871154785 C 0.3572164177894592 10.57537841796875 1.211836457252502 9.375238418579102 2.436256408691406 8.816008567810059 L 3.536116361618042 3.514938354492188 C 3.938796520233154 1.57688844203949 5.83833646774292 -1.555480935166997e-06 7.77177619934082 -1.555480935166997e-06 L 16.43651580810547 -1.555480935166997e-06 C 18.36983680725098 -1.555480935166997e-06 20.26949691772461 1.576088428497314 20.67134666442871 3.514938354492188 L 21.77121734619141 8.816008567810059 C 22.99565696716309 9.375238418579102 23.85024642944336 10.57537841796875 23.94901657104492 11.93303871154785 L 24.19810676574707 15.33349800109863 C 24.30461692810059 16.79533767700195 23.49463653564453 18.11214828491211 22.22247695922852 18.6456184387207 C 21.93104553222656 19.81984901428223 20.8969669342041 20.67607879638672 19.6733570098877 20.67607879638672 Z" stroke="none" fill="#858789"/>
      </g>
      <g id="椭圆形" transform="translate(7.061 5.043)" fill="none" stroke="#979797" stroke-miterlimit="10" stroke-width="1.5">
        <circle cx="4.035" cy="4.035" r="4.035" stroke="none"/>
        <circle cx="4.035" cy="4.035" r="3.285" fill="none"/>
      </g>
      <path id="路径_2" data-name="路径 2" d="M0,0,2.5,1.806" transform="translate(13.62 11.307)" fill="none" stroke="#979797" stroke-linecap="round" stroke-miterlimit="10" stroke-width="1.5"/>
    </g>
    <rect id="矩形_27" data-name="矩形 27" width="32" height="32" transform="translate(116 1343)" fill="none"/>
  </g>
</svg>
