<svg xmlns="http://www.w3.org/2000/svg" width="32" height="32" viewBox="0 0 32 32">
  <g id="组_29" data-name="组 29" transform="translate(-818 -1824)">
    <g id="我的" transform="translate(823 1830)">
      <path id="形状结合" d="M1.768,20.683A1.768,1.768,0,0,1,0,18.948v-.032a6.662,6.662,0,0,1,6.662-6.629H14.48a6.662,6.662,0,0,1,6.662,6.629v.032a1.768,1.768,0,0,1-1.768,1.735ZM4.845,5.746a5.726,5.726,0,1,1,5.727,5.745A5.736,5.736,0,0,1,4.845,5.746Z" transform="translate(0)" fill="#467ef5"/>
      <path id="路径" d="M0,0A2.051,2.051,0,0,0,1.9,2.176h0A2.051,2.051,0,0,0,3.795,0" transform="translate(8.674 5.439)" fill="none" stroke="#fff" stroke-miterlimit="10" stroke-width="3"/>
    </g>
    <rect id="矩形_73" data-name="矩形 73" width="32" height="32" transform="translate(818 1824)" fill="none"/>
  </g>
</svg>
