<svg xmlns="http://www.w3.org/2000/svg" width="32" height="32" viewBox="0 0 32 32">
  <g id="组_5" data-name="组 5" transform="translate(-159 -1368)">
    <rect id="矩形_27" data-name="矩形 27" width="32" height="32" transform="translate(159 1368)" fill="none"/>
    <g id="首页" transform="translate(165.4 1373.6)">
      <path id="Combined_Shape" data-name="Combined Shape" d="M17.073,20.676H2.134A2.136,2.136,0,0,1,0,18.542V8.2A2.125,2.125,0,0,1,.789,6.539L8.258.477a2.134,2.134,0,0,1,2.69,0l7.469,6.062A2.125,2.125,0,0,1,19.207,8.2V18.542A2.136,2.136,0,0,1,17.073,20.676Zm-11.1-5.2a.779.779,0,0,0,0,1.557h7.563a.779.779,0,0,0,0-1.557Z" transform="translate(0 0)" fill="#467ef5"/>
    </g>
  </g>
</svg>
