<svg xmlns="http://www.w3.org/2000/svg" width="32" height="32" viewBox="0 0 32 32">
  <g id="组_61" data-name="组 61" transform="translate(-820 -1822)">
    <g id="首页" transform="translate(826 1827.892)">
      <g id="Combined_Shape" data-name="Combined Shape" transform="translate(0 0.108)" fill="none" stroke-miterlimit="10">
        <path d="M0,8.147A1.974,1.974,0,0,1,.728,6.616L8.309.443a1.974,1.974,0,0,1,2.493,0l7.581,6.173a1.974,1.974,0,0,1,.728,1.531V18.709a1.974,1.974,0,0,1-1.974,1.974H1.974A1.974,1.974,0,0,1,0,18.709Z" stroke="none"/>
        <path d="M 9.555163383483887 1.500005722045898 C 9.47822380065918 1.500005722045898 9.363813400268555 1.518474578857422 9.255722999572754 1.606494903564453 L 1.674783706665039 7.779495239257812 C 1.563713073730469 7.869945526123047 1.500003814697266 8.003974914550781 1.500003814697266 8.147225379943848 L 1.500003814697266 18.70866584777832 C 1.500003814697266 18.97015571594238 1.712734222412109 19.18288612365723 1.974212646484375 19.18288612365723 L 17.1361026763916 19.18288612365723 C 17.39759254455566 19.18288612365723 17.61032295227051 18.97015571594238 17.61032295227051 18.70866584777832 L 17.61032295227051 8.147225379943848 C 17.61032295227051 8.003974914550781 17.5466136932373 7.869945526123047 17.43554306030273 7.779495239257812 L 9.854593276977539 1.606494903564453 C 9.746513366699219 1.518474578857422 9.632102966308594 1.500005722045898 9.555163383483887 1.500005722045898 M 9.555163383483887 1.9073486328125e-06 C 9.996963500976562 1.9073486328125e-06 10.43876361846924 0.1477794647216797 10.80173301696777 0.4433345794677734 L 18.3826732635498 6.616334915161133 C 18.84309387207031 6.991245269775391 19.11032295227051 7.553464889526367 19.11032295227051 8.147225379943848 L 19.11032295227051 18.70866584777832 C 19.11032295227051 19.79900550842285 18.22644424438477 20.68288612365723 17.1361026763916 20.68288612365723 L 1.974212646484375 20.68288612365723 C 0.8838825225830078 20.68288612365723 3.814697265625e-06 19.79900550842285 3.814697265625e-06 18.70866584777832 L 3.814697265625e-06 8.147225379943848 C 3.814697265625e-06 7.553464889526367 0.2672328948974609 6.991245269775391 0.7276535034179688 6.616334915161133 L 8.30859375 0.4433345794677734 C 8.671563148498535 0.1477794647216797 9.113363265991211 1.9073486328125e-06 9.555163383483887 1.9073486328125e-06 Z" stroke="none" fill="#858789"/>
      </g>
      <g id="Path_4" data-name="Path 4" transform="translate(5.165 15.602)" fill="none" stroke-miterlimit="10">
        <path d="M.775,1.555A.777.777,0,0,1,.775,0H8.3a.777.777,0,0,1,0,1.555Z" stroke="none"/>
        <path d="M 8.299022674560547 1.554698348045349 L 0.7747424244880676 1.554698348045349 C 0.346862405538559 1.554698348045349 2.400512585154502e-06 1.206668376922607 2.400512585154502e-06 0.7773483991622925 C 2.400512585154502e-06 0.3480283915996552 0.346862405538559 -1.600837663318089e-06 0.7747424244880676 -1.600837663318089e-06 L 8.299022674560547 -1.600837663318089e-06 C 8.726902008056641 -1.600837663318089e-06 9.073761940002441 0.3480283915996552 9.073761940002441 0.7773483991622925 C 9.073761940002441 1.206668376922607 8.726902008056641 1.554698348045349 8.299022674560547 1.554698348045349 Z" stroke="none" fill="#858789"/>
      </g>
    </g>
    <rect id="矩形_74" data-name="矩形 74" width="32" height="32" transform="translate(820 1822)" fill="none"/>
  </g>
</svg>
