<svg xmlns="http://www.w3.org/2000/svg" width="32" height="32" viewBox="0 0 32 32">
  <g id="组_10" data-name="组 10" transform="translate(-403 -1372)">
    <g id="我的" transform="translate(408.602 1377.602)">
      <g id="形状结合" fill="none" stroke-miterlimit="10">
        <path d="M1.768,20.683A1.769,1.769,0,0,1,0,18.948v-.033a6.661,6.661,0,0,1,6.662-6.628H14.55a6.661,6.661,0,0,1,6.662,6.628v.033a1.769,1.769,0,0,1-1.768,1.735ZM4.861,5.745a5.745,5.745,0,1,1,5.746,5.746A5.745,5.745,0,0,1,4.861,5.745Z" stroke="none"/>
        <path d="M 19.44449996948242 19.18290138244629 C 19.58687973022461 19.18290138244629 19.70532035827637 19.06898880004883 19.71210098266602 18.92738723754883 L 19.71210098266602 18.91801834106445 C 19.69622993469238 16.08774948120117 17.38142013549805 13.78590106964111 14.55030059814453 13.78590106964111 L 6.661800384521484 13.78590106964111 C 3.83068060874939 13.78590106964111 1.515870094299316 16.08774948120117 1.500000476837158 18.91801834106445 L 1.500000476837158 18.92738723754883 C 1.506781578063965 19.06898880004883 1.625222086906433 19.18290138244629 1.767600536346436 19.18290138244629 L 19.44449996948242 19.18290138244629 M 10.60650062561035 9.990301132202148 C 12.94704055786133 9.990301132202148 14.85120010375977 8.08573055267334 14.85120010375977 5.744700908660889 C 14.85120010375977 3.404160737991333 12.94704055786133 1.500000715255737 10.60650062561035 1.500000715255737 C 8.265470504760742 1.500000715255737 6.360900402069092 3.404160737991333 6.360900402069092 5.744700908660889 C 6.360900402069092 8.08573055267334 8.265470504760742 9.990301132202148 10.60650062561035 9.990301132202148 M 19.44449996948242 20.68290138244629 L 1.767600536346436 20.68290138244629 C 0.8019005060195923 20.68290138244629 0.01800049096345901 19.90800094604492 4.913330258204951e-07 18.94770050048828 C 4.913330258204951e-07 18.93959999084473 4.913330258204951e-07 18.93239974975586 4.913330258204951e-07 18.92520141601562 C 4.913330258204951e-07 18.92160034179688 4.913330258204951e-07 18.91800117492676 4.913330258204951e-07 18.91440010070801 C 0.01800049096345901 15.24960041046143 2.993400573730469 12.28590106964111 6.661800384521484 12.28590106964111 L 14.55030059814453 12.28590106964111 C 18.21870040893555 12.28590106964111 21.19410133361816 15.24960041046143 21.21210098266602 18.91440010070801 C 21.21210098266602 18.91800117492676 21.21210098266602 18.92160034179688 21.21210098266602 18.92520141601562 C 21.21210098266602 18.93239974975586 21.21210098266602 18.93959999084473 21.21210098266602 18.94770050048828 C 21.19410133361816 19.90800094604492 20.41020011901855 20.68290138244629 19.44449996948242 20.68290138244629 Z M 10.60650062561035 11.49030113220215 C 7.433100700378418 11.49030113220215 4.860900402069092 8.918100357055664 4.860900402069092 5.744700908660889 C 4.860900402069092 2.572200775146484 7.433100700378418 6.912231356182019e-07 10.60650062561035 6.912231356182019e-07 C 13.7790002822876 6.912231356182019e-07 16.35120010375977 2.572200775146484 16.35120010375977 5.744700908660889 C 16.35120010375977 8.918100357055664 13.7790002822876 11.49030113220215 10.60650062561035 11.49030113220215 Z" stroke="none" fill="#858789"/>
      </g>
      <path id="路径" d="M0,0A2.053,2.053,0,0,0,1.9,2.176h0A2.053,2.053,0,0,0,3.807,0" transform="translate(8.703 5.439)" fill="none" stroke="#979797" stroke-miterlimit="10" stroke-width="1.5"/>
    </g>
    <rect id="矩形_28" data-name="矩形 28" width="32" height="32" transform="translate(403 1372)" fill="none"/>
  </g>
</svg>
