<svg xmlns="http://www.w3.org/2000/svg" width="32" height="32" viewBox="0 0 32 32">
  <g id="组_95" data-name="组 95" transform="translate(-650 -2034)">
    <g id="组_94" data-name="组 94" transform="translate(201.5 34)">
      <path id="Fill_1" data-name="Fill 1" d="M22.223,18.646A2.612,2.612,0,0,1,17.2,18.9H7.007a2.612,2.612,0,0,1-5.021-.254A3.3,3.3,0,0,1,.009,15.334l.25-3.4A3.749,3.749,0,0,1,2.436,8.816l1.1-5.3A4.553,4.553,0,0,1,7.772,0h8.665a4.55,4.55,0,0,1,4.235,3.515l1.1,5.3a3.751,3.751,0,0,1,2.178,3.117l.249,3.4A3.3,3.3,0,0,1,22.223,18.646Z" transform="translate(452.5 2006)" fill="#467ef5"/>
      <g id="形状结合" transform="translate(459.561 2011.043)" fill="none" stroke-miterlimit="10">
        <path d="M8.681,8.723l-.061-.04L6.55,7.189a4.029,4.029,0,1,1,.988-1.152L9.5,7.456a.757.757,0,0,1-.824,1.267Z" stroke="none"/>
        <path d="M 4.0346999168396 6.569398880004883 C 4.61562967300415 6.569398880004883 5.16185998916626 6.378428936004639 5.614339828491211 6.017148971557617 L 5.995254993438721 5.713003158569336 L 6.236639976501465 5.291539192199707 C 6.454329967498779 4.911438941955566 6.569399833679199 4.476829051971436 6.569399833679199 4.034698963165283 C 6.569399833679199 2.637058973312378 5.432339668273926 1.499999046325684 4.0346999168396 1.499999046325684 C 2.637059926986694 1.499999046325684 1.49999988079071 2.637058973312378 1.49999988079071 4.034698963165283 C 1.49999988079071 5.432339191436768 2.637059926986694 6.569398880004883 4.0346999168396 6.569398880004883 M 9.061530113220215 8.825849533081055 C 8.931010246276855 8.825859069824219 8.799459457397461 8.792248725891113 8.680500030517578 8.722799301147461 L 8.61929988861084 8.68229866027832 L 6.550280094146729 7.189329147338867 C 5.860479831695557 7.740108966827393 4.986099720001221 8.069398880004883 4.0346999168396 8.069398880004883 C 1.806299924850464 8.069398880004883 -9.765624753299562e-08 6.263099193572998 -9.765624753299562e-08 4.034698963165283 C -9.765624753299562e-08 1.806299090385437 1.806299924850464 -9.419250659448153e-07 4.0346999168396 -9.419250659448153e-07 C 6.263099670410156 -9.419250659448153e-07 8.069399833679199 1.806299090385437 8.069399833679199 4.034698963165283 C 8.069399833679199 4.763449192047119 7.876209735870361 5.44697904586792 7.538269996643066 6.037029266357422 L 9.504899978637695 7.455598831176758 C 9.843299865722656 7.700398921966553 9.9197998046875 8.17289924621582 9.675899505615234 8.512199401855469 C 9.527810096740723 8.716979026794434 9.296380043029785 8.825839042663574 9.061530113220215 8.825849533081055 Z" stroke="none" fill="#fff"/>
      </g>
    </g>
    <rect id="矩形_27" data-name="矩形 27" width="32" height="32" transform="translate(650 2034)" fill="none"/>
  </g>
</svg>
