<svg xmlns="http://www.w3.org/2000/svg" width="40" height="40" viewBox="0 0 40 40">
  <g id="组_88" data-name="组 88" transform="translate(115 -2660)">
    <rect id="矩形_277" data-name="矩形 277" width="40" height="40" transform="translate(-115 2660)" fill="none"/>
    <g id="添加好友_109" data-name="添加好友 109" transform="translate(-182.905 2602.308)">
      <path id="路径_27" data-name="路径 27" d="M312.007,100.3m-5.884,0a5.884,5.884,0,1,0,5.884-5.884,5.884,5.884,0,0,0-5.884,5.884Z" transform="translate(-224.367 -29.81)" fill="#467ef5" opacity="0.3"/>
      <path id="路径_28" data-name="路径 28" d="M91.2,88.562H77.867a1.142,1.142,0,0,1-1.141-1.141v-.636a9.516,9.516,0,0,1,9.505-9.505h2.817a9.433,9.433,0,0,1,3.611.71.91.91,0,0,0,.692-1.684,11.28,11.28,0,0,0-1.5-.5,6.793,6.793,0,1,0-8.422,0,11.344,11.344,0,0,0-8.524,10.974v.636a2.966,2.966,0,0,0,2.962,2.962H91.2a.91.91,0,1,0,0-1.819ZM82.667,70.486a4.973,4.973,0,1,1,4.973,4.973A4.979,4.979,0,0,1,82.667,70.486Z" fill="#474a54"/>
      <path id="路径_29" data-name="路径 29" d="M650.951,642.742H648.1v-2.855a.91.91,0,0,0-1.821,0v2.855H643.42a.91.91,0,1,0,0,1.821h2.855v2.855a.91.91,0,1,0,1.821,0v-2.855h2.855a.91.91,0,0,0,0-1.821Z" transform="translate(-550.784 -558.237)" fill="#474a54"/>
    </g>
  </g>
</svg>
