<svg id="组_26" data-name="组 26" xmlns="http://www.w3.org/2000/svg" width="28" height="28" viewBox="0 0 28 28">
  <rect id="矩形_64" data-name="矩形 64" width="28" height="28" fill="none"/>
  <g id="金额_30" data-name="金额 30" transform="translate(4.529 4.529)">
    <path id="路径_30" data-name="路径 30" d="M94.515,597.35c-4.875,0-7.333-1.147-8.571-2.358a9,9,0,0,0-.3,4.354,2.974,2.974,0,0,0,2.924,2.46h11.79a2.949,2.949,0,0,0,2.909-2.384,8.99,8.99,0,0,0-.392-4.734c-1.041,1.348-3.342,2.662-8.361,2.662Z" transform="translate(-84.857 -583.438)" fill="#467ef5" opacity="0.3"/>
    <path id="路径_31" data-name="路径 31" d="M70.284,79.737H58.494a3.617,3.617,0,0,1-3.561-2.994,9.618,9.618,0,0,1,4.638-10c-1.039-1.488-1.214-2.9-.5-4.1l.015-.024a2.765,2.765,0,0,1,3.1-.9,3.347,3.347,0,0,1,2.549-.993,3.068,3.068,0,0,1,2.224,1.086,3.239,3.239,0,0,1,2.446.321,2.2,2.2,0,0,1,.906,2.176,5.3,5.3,0,0,1-.956,2.519,9.547,9.547,0,0,1,4.639,8.224,9.653,9.653,0,0,1-.164,1.774,3.592,3.592,0,0,1-3.545,2.913ZM60.177,63.31c-.625,1.082.127,2.35.87,3.225a.647.647,0,0,1-.216,1,8.326,8.326,0,0,0-4.624,8.977,2.325,2.325,0,0,0,2.287,1.927h11.79a2.3,2.3,0,0,0,2.273-1.855A8.39,8.39,0,0,0,72.7,75.05a8.268,8.268,0,0,0-4.616-7.445.647.647,0,0,1-.194-1.011,4.251,4.251,0,0,0,1.133-2.417c.064-.626-.16-.851-.333-.966a2.054,2.054,0,0,0-1.705-.045.648.648,0,0,1-.921-.349,1.627,1.627,0,0,0-1.329-.8,1.948,1.948,0,0,0-1.8.825.647.647,0,0,1-.776.231c-1.163-.472-1.827.014-1.98.235Z" transform="translate(-54.784 -60.723)" fill="#474a54"/>
    <path id="路径_32" data-name="路径 32" d="M361.77,454.3h-1.993v-.7h1.993a.647.647,0,0,0,0-1.294h-1.21l1.674-1.717a.648.648,0,0,0-.928-.9l-2.178,2.234-2.177-2.234a.647.647,0,0,0-.927.9L357.7,452.3h-1.211a.647.647,0,0,0,0,1.294h1.994v.7h-1.994a.647.647,0,0,0,0,1.294h1.994v1.421a.647.647,0,1,0,1.294,0v-1.421h1.993a.647.647,0,1,0,0-1.293Z" transform="translate(-349.497 -441.292)" fill="#474a54"/>
  </g>
</svg>
