<svg xmlns="http://www.w3.org/2000/svg" width="28" height="28" viewBox="0 0 28 28">
  <g id="组_92" data-name="组 92" transform="translate(-38 -491)">
    <rect id="矩形_68" data-name="矩形 68" width="28" height="28" transform="translate(38 491)" fill="none"/>
    <g id="链接_98" data-name="链接 98" transform="translate(43 496)">
      <path id="路径_39" data-name="路径 39" d="M350.475,350.412l-4.2-4.2a1.947,1.947,0,1,1,2.753-2.753l4.2,4.2a1.947,1.947,0,0,1-2.753,2.753Z" transform="translate(-339.882 -337.18)" fill="#467ef5" opacity="0.3"/>
      <path id="路径_40" data-name="路径 40" d="M85.256,79.821l-1.883-1.883a.644.644,0,0,0-.911.911l1.883,1.883a4.4,4.4,0,0,1-6.228,6.228l-1.986-1.985a.644.644,0,0,0-.911.911l1.986,1.986a5.693,5.693,0,1,0,8.051-8.052Zm-8.072-6.249,1.759,1.759a.644.644,0,0,0,.911-.911l-1.759-1.759a5.693,5.693,0,1,0-8.052,8.051l1.78,1.78a.644.644,0,0,0,.911-.911L70.955,79.8a4.4,4.4,0,0,1,6.228-6.228Z" transform="translate(-68.378 -70.995)" fill="#474a54"/>
      <path id="路径_41" data-name="路径 41" d="M398.247,393.017a.645.645,0,0,0-.006.911l4.609,4.671a.644.644,0,0,0,.918-.9l-4.608-4.671a.646.646,0,0,0-.912-.006Z" transform="translate(-391.136 -386.077)" fill="#474a54"/>
    </g>
  </g>
</svg>
