<svg xmlns="http://www.w3.org/2000/svg" width="40" height="40" viewBox="0 0 40 40">
  <g id="组_89" data-name="组 89" transform="translate(167 -2697)">
    <g id="组_88" data-name="组 88">
      <g id="选项_147" data-name="选项 147" transform="translate(-270.541 2601.778)">
        <path id="路径_24" data-name="路径 24" d="M286.566,551.833m-2.867,0a2.867,2.867,0,1,0,2.867-2.867A2.867,2.867,0,0,0,283.7,551.833Z" transform="translate(-167.531 -433.194)" fill="#467ef5" opacity="0.3"/>
        <path id="路径_25" data-name="路径 25" d="M132.9,101.222H114.867a4.33,4.33,0,0,0-4.326,4.326v18.037a4.33,4.33,0,0,0,4.326,4.326H132.9a4.33,4.33,0,0,0,4.326-4.326V105.548A4.33,4.33,0,0,0,132.9,101.222Zm2.329,22.363a2.332,2.332,0,0,1-2.329,2.329H114.867a2.332,2.332,0,0,1-2.329-2.329V105.548a2.332,2.332,0,0,1,2.329-2.329H132.9a2.332,2.332,0,0,1,2.329,2.329Z" fill="#474a54"/>
        <path id="路径_26" data-name="路径 26" d="M257.836,263.781l-3.092,3.273-1.3-1.276a1,1,0,1,0-1.4,1.424l2.023,1.992a1,1,0,0,0,.7.286h.018a1,1,0,0,0,.707-.313l3.792-4.015a1,1,0,0,0-1.453-1.371Zm10.491,1.822h-5.592a1,1,0,1,0,0,2h5.592a1,1,0,0,0,0-2Zm0,9.012h-5.592a1,1,0,1,0,0,2h5.592a1,1,0,0,0,0-2Zm-12.672-2.869a3.865,3.865,0,1,0,3.865,3.865A3.869,3.869,0,0,0,255.655,271.747Zm0,5.735a1.869,1.869,0,1,1,1.869-1.869A1.871,1.871,0,0,1,255.655,277.482Z" transform="translate(-136.62 -156.974)" fill="#474a54"/>
      </g>
      <rect id="矩形_277" data-name="矩形 277" width="40" height="40" transform="translate(-167 2697)" fill="none"/>
    </g>
  </g>
</svg>
