<svg xmlns="http://www.w3.org/2000/svg" width="28" height="28" viewBox="0 0 28 28">
  <g id="组_90" data-name="组 90" transform="translate(-38 -377)">
    <rect id="矩形_64" data-name="矩形 64" width="28" height="28" transform="translate(38 377)" fill="none"/>
    <g id="金融_31" data-name="金融 31" transform="translate(43 382)">
      <path id="路径_33" data-name="路径 33" d="M361.57,353.153l-2.383-2.383a.864.864,0,0,0-1.223,0l-2.382,2.383a.864.864,0,0,0,0,1.223l2.383,2.383a.864.864,0,0,0,1.223,0l2.383-2.383A.865.865,0,0,0,361.57,353.153Z" transform="translate(-349.305 -344.492)" fill="#467ef5" opacity="0.3"/>
      <path id="路径_34" data-name="路径 34" d="M328.472,327.487a1.473,1.473,0,0,1-1.048-.434l-2.383-2.383a1.482,1.482,0,0,1,0-2.1l2.383-2.383a1.484,1.484,0,0,1,2.1,0l2.383,2.383a1.484,1.484,0,0,1,0,2.1l-2.383,2.383A1.474,1.474,0,0,1,328.472,327.487Zm0-6.494a.245.245,0,0,0-.174.072l-2.383,2.383a.246.246,0,0,0,0,.348l2.383,2.383a.247.247,0,0,0,.348,0l2.383-2.383a.247.247,0,0,0,0-.348l-2.383-2.383a.248.248,0,0,0-.174-.072Z" transform="translate(-319.201 -314.351)" fill="#474a54"/>
      <path id="路径_35" data-name="路径 35" d="M65.232,69.692A9.271,9.271,0,1,1,74.5,60.42a9.282,9.282,0,0,1-9.271,9.271Zm0-17.307a8.035,8.035,0,1,0,8.035,8.035A8.044,8.044,0,0,0,65.232,52.385Z" transform="translate(-55.961 -51.149)" fill="#474a54"/>
    </g>
  </g>
</svg>
