<svg id="组_64" data-name="组 64" xmlns="http://www.w3.org/2000/svg" width="28" height="28" viewBox="0 0 28 28">
  <rect id="矩形_70" data-name="矩形 70" width="28" height="28" fill="none"/>
  <g id="拼团_72" data-name="拼团 72" transform="translate(2 5)">
    <path id="路径_58" data-name="路径 58" d="M290.714,520a11.074,11.074,0,0,1,16.974,0s-.6-8.205-8.485-8.205S290.714,520,290.714,520Z" transform="translate(-284.337 -502.529)" fill="#b4c5e9"/>
    <path id="路径_59" data-name="路径 59" d="M272.166,158.774a4.967,4.967,0,1,0-5.892,0,9.292,9.292,0,0,0-6.331,8.794.786.786,0,1,0,1.573,0,7.7,7.7,0,1,1,15.407,0,.786.786,0,1,0,1.573,0,9.285,9.285,0,0,0-6.329-8.794Zm-2.945-7.392a3.394,3.394,0,1,1-3.394,3.394A3.4,3.4,0,0,1,269.221,151.382Z" transform="translate(-254.353 -149.811)" fill="#474a54"/>
    <path id="路径_60" data-name="路径 60" d="M48.455,235.572a3.593,3.593,0,0,0,2.314-1.046.786.786,0,0,0-1.111-1.111,2.034,2.034,0,0,1-2.877-2.877,2.033,2.033,0,0,1,2.877,0,.786.786,0,0,0,1.111-1.111,3.606,3.606,0,1,0-5.1,5.1l.024.022a6.519,6.519,0,0,0-4.119,6.053.786.786,0,0,0,1.573,0,4.946,4.946,0,0,1,4.941-4.941.784.784,0,0,0,.367-.09Z" transform="translate(-41.574 -226.359)" fill="#474a54"/>
  </g>
</svg>
