<svg xmlns="http://www.w3.org/2000/svg" width="28" height="28" viewBox="0 0 28 28">
  <g id="组_62" data-name="组 62" transform="translate(-42 -548)">
    <rect id="矩形_70" data-name="矩形 70" width="28" height="28" transform="translate(42 548)" fill="none"/>
    <g id="通话_125" data-name="通话 125" transform="translate(47 553)">
      <path id="路径_42" data-name="路径 42" d="M142.664,98.3s-4.075,4.251,0,10.9,8.706,4.906,8.706,4.906-2.388,3.786-8-.337c-1.529-1.513-4.214-5.794-4.476-9.174S140,99.146,142.664,98.3Z" transform="translate(-138.249 -97.651)" fill="#467ef5" opacity="0.3"/>
      <path id="路径_43" data-name="路径 43" d="M120.1,78.313a1.535,1.535,0,0,0-1.865-.6l-1.22.49a.258.258,0,0,1-.321-.114l-1.285-2.33a.256.256,0,0,1,.094-.345l1.432-.845a1.531,1.531,0,0,0,.571-2.049l-2.576-4.789a1.523,1.523,0,0,0-2.02-.655,8.915,8.915,0,0,0-2.357,1.877c-.029.033-.055.066-.081.1-2.128,2.831-.863,6.224-.026,8.469.044.118.086.232.128.343.794,2.153,2.82,5.222,4.466,6.2a7.817,7.817,0,0,0,4.284,1.4,6.216,6.216,0,0,0,2.934-.734,1.528,1.528,0,0,0,.755-.962,1.544,1.544,0,0,0-.194-1.217l-2.72-4.241Zm1.677,5.137a.253.253,0,0,1-.123.158c-1.019.548-3.145,1.194-5.928-.618l-.026-.016c-1.235-.724-3.144-3.419-3.927-5.545-.042-.112-.084-.228-.129-.347-.784-2.1-1.858-4.982-.149-7.257a.216.216,0,0,1,.016-.019,7.422,7.422,0,0,1,1.965-1.578.228.228,0,0,1,.1-.023.261.261,0,0,1,.227.137l2.575,4.788a.256.256,0,0,1-.1.343l-1.431.846a1.529,1.529,0,0,0-.564,2.063l1.285,2.329a1.536,1.536,0,0,0,1.917.683l1.22-.491a.257.257,0,0,1,.312.1l2.72,4.242A.259.259,0,0,1,121.777,83.45Zm3.734-11.036a7.318,7.318,0,0,0-4.578-3.514.639.639,0,0,0-.252,1.254,6.135,6.135,0,0,1,3.718,2.888,6.063,6.063,0,0,1,.249,4.914.639.639,0,1,0,1.171.51A7.264,7.264,0,0,0,125.51,72.414Z" transform="translate(-109.302 -66.923)" fill="#474a54"/>
      <path id="路径_44" data-name="路径 44" d="M606.328,303.688a.639.639,0,0,0-.256,1.253,2.712,2.712,0,0,1,1.855,3.655.639.639,0,1,0,1.171.51,3.991,3.991,0,0,0-2.77-5.418Z" transform="translate(-595.241 -298.75)" fill="#474a54"/>
    </g>
  </g>
</svg>
