<svg id="组_63" data-name="组 63" xmlns="http://www.w3.org/2000/svg" width="28" height="28" viewBox="0 0 28 28">
  <g id="日历_88" data-name="日历 88" transform="translate(4 5)">
    <path id="路径_55" data-name="路径 55" d="M113.9,636.375H102.827a3.807,3.807,0,0,1-3.807-3.807v-2.143h18.689v2.143a3.809,3.809,0,0,1-3.808,3.807Z" transform="translate(-98.189 -618.516)" fill="#b4c5e9"/>
    <path id="路径_56" data-name="路径 56" d="M77.212,170.291a.684.684,0,0,0,0,1.368c2.924,0,3.319,1.217,3.319,2.406v.942H63.064v-.942c0-1.189.395-2.406,3.319-2.406a.684.684,0,1,0,0-1.368c-3.874,0-4.687,2.053-4.687,3.775v9.62a3.492,3.492,0,0,0,3.487,3.487H78.456a3.446,3.446,0,0,0,3.443-3.443v-9.665c0-1.722-.813-3.775-4.687-3.775ZM78.456,185.8H65.183a2.121,2.121,0,0,1-2.119-2.119v-7.31H80.531v7.354a2.077,2.077,0,0,1-2.074,2.074Z" transform="translate(-61.696 -168.631)" fill="#474a54"/>
    <path id="路径_57" data-name="路径 57" d="M186.465,98.773h4.185a.684.684,0,1,0,0-1.368h-4.185a.684.684,0,0,0,0,1.368Zm5.9,1.924a.685.685,0,0,0,.684-.684V96.428a.684.684,0,0,0-1.368,0v3.584A.683.683,0,0,0,192.363,100.7Zm-7.625,0a.685.685,0,0,0,.684-.684V96.428a.684.684,0,0,0-1.368,0v3.584A.683.683,0,0,0,184.739,100.7Zm.031,4.637h-2.991a.684.684,0,0,0,0,1.368h2.991a.684.684,0,0,0,0-1.368Zm5.24,0h-2.992a.684.684,0,0,0,0,1.368h2.991a.684.684,0,0,0,0-1.368Zm-5.24,3.348h-2.991a.684.684,0,0,0,0,1.368h2.991a.684.684,0,0,0,0-1.368Zm5.24,0h-2.992a.684.684,0,0,0,0,1.368h2.991a.684.684,0,0,0,0-1.368Zm5.293-3.348h-2.991a.684.684,0,0,0,0,1.368H195.3a.684.684,0,0,0,0-1.368Z" transform="translate(-178.435 -95.744)" fill="#474a54"/>
  </g>
  <rect id="矩形_223" data-name="矩形 223" width="28" height="28" fill="none"/>
</svg>
