<svg xmlns="http://www.w3.org/2000/svg" width="28" height="28" viewBox="0 0 28 28">
  <g id="组_91" data-name="组 91" transform="translate(-38 -434)">
    <rect id="矩形_67" data-name="矩形 67" width="28" height="28" transform="translate(38 434)" fill="none"/>
    <g id="计算器_87" data-name="计算器 87" transform="translate(43 439)">
      <path id="路径_36" data-name="路径 36" d="M144.2,636.367H132.143a2.556,2.556,0,0,1-2.556-2.556v-3.436h17.165v3.436A2.555,2.555,0,0,1,144.2,636.367Z" transform="translate(-128.898 -618.634)" fill="#467ef5" opacity="0.3"/>
      <path id="路径_37" data-name="路径 37" d="M114.424,106.854H101.852a2.988,2.988,0,0,0-2.985,2.985v12.572a2.988,2.988,0,0,0,2.985,2.985h12.572a2.988,2.988,0,0,0,2.985-2.985V109.839A2.989,2.989,0,0,0,114.424,106.854Zm1.608,15.557a1.609,1.609,0,0,1-1.608,1.608H101.852a1.609,1.609,0,0,1-1.608-1.608V109.839a1.609,1.609,0,0,1,1.608-1.608h12.572a1.609,1.609,0,0,1,1.608,1.608Z" transform="translate(-98.867 -106.854)" fill="#474a54"/>
      <path id="路径_38" data-name="路径 38" d="M213.262,235.864h-4.445a.689.689,0,0,0,0,1.378h4.445a.689.689,0,1,0,0-1.378Zm7.663,5.237h-4.444a.689.689,0,1,0,0,1.378h4.444a.689.689,0,1,0,0-1.378Zm0-4.639h-1.533v-1.533a.689.689,0,1,0-1.378,0v1.533h-1.533a.689.689,0,0,0,0,1.378h1.533v1.533a.689.689,0,1,0,1.378,0V237.84h1.533a.689.689,0,0,0,0-1.378Zm-7.721,5.045a.69.69,0,0,0-.975,0l-1.308,1.308-1.307-1.308a.689.689,0,0,0-.975.975l1.308,1.308-1.307,1.307a.689.689,0,1,0,.974.975l1.308-1.308,1.308,1.308a.689.689,0,0,0,.974-.975l-1.308-1.308,1.308-1.308a.687.687,0,0,0,0-.974Zm7.721,3.131h-4.444a.689.689,0,0,0,0,1.378h4.444a.689.689,0,1,0,0-1.378Z" transform="translate(-205.678 -231.383)" fill="#474a54"/>
    </g>
  </g>
</svg>
