<svg xmlns="http://www.w3.org/2000/svg" width="40" height="40" viewBox="0 0 40 40">
  <g id="组_80" data-name="组 80" transform="translate(149 -1174)">
    <rect id="矩形_272" data-name="矩形 272" width="40" height="40" transform="translate(-149 1174)" fill="none"/>
    <g id="汇总_145" data-name="汇总 145" transform="translate(-224.92 1098.466)">
      <path id="路径_13" data-name="路径 13" d="M150.715,524.213H132.332a2.949,2.949,0,0,1-2.949-2.949v-4.656h24.281v4.656A2.949,2.949,0,0,1,150.715,524.213Z" transform="translate(-45.99 -420.602)" fill="#467ef5" opacity="0.3"/>
      <path id="路径_14" data-name="路径 14" d="M104.876,82.534H86.051a4.135,4.135,0,0,0-4.131,4.131v13.767a4.135,4.135,0,0,0,4.131,4.131h18.825a4.135,4.135,0,0,0,4.131-4.131V86.665a4.136,4.136,0,0,0-4.131-4.131Zm2.225,17.9a2.227,2.227,0,0,1-2.225,2.225H86.051a2.227,2.227,0,0,1-2.225-2.225V86.665a2.227,2.227,0,0,1,2.225-2.225h18.825a2.227,2.227,0,0,1,2.225,2.225v13.767Zm-5.611,6.884H89.436a.953.953,0,1,0,0,1.907H101.49a.953.953,0,0,0,0-1.907Z" fill="#474a54"/>
      <path id="路径_15" data-name="路径 15" d="M294.841,292.8a.954.954,0,0,0-.953.953v2.83a.953.953,0,1,0,1.907,0v-2.83A.953.953,0,0,0,294.841,292.8Zm5.889-3.879a.954.954,0,0,0-.953.953v6.709a.953.953,0,1,0,1.907,0v-6.709A.953.953,0,0,0,300.73,288.922Zm5.948,2.145a.954.954,0,0,0-.953.953v4.564a.953.953,0,1,0,1.907,0v-4.564A.952.952,0,0,0,306.678,291.067Z" transform="translate(-205.39 -199.983)" fill="#474a54"/>
    </g>
  </g>
</svg>
