<svg xmlns="http://www.w3.org/2000/svg" width="40" height="40" viewBox="0 0 40 40">
  <g id="组_80" data-name="组 80" transform="translate(280 -1118)">
    <g id="打卡_8" data-name="打卡 8" transform="translate(-336.618 1038.37)">
      <path id="路径_7" data-name="路径 7" d="M98.09,638.618h26.863s.363,7.975-6.308,7.975H103.637s-5.691-.435-5.691-4.821a17.761,17.761,0,0,1,.144-3.155Z" transform="translate(-34.195 -534.292)" fill="#467ef5" opacity="0.3"/>
      <path id="路径_8" data-name="路径 8" d="M84.624,185.477H69.692a7.082,7.082,0,0,1-7.074-7.074v-10.15a6.764,6.764,0,0,1,6.746-7.074.985.985,0,0,1,0,1.97,4.84,4.84,0,0,0-4.776,5.1V178.4a5.11,5.11,0,0,0,5.1,5.1H84.624a5.11,5.11,0,0,0,5.1-5.1v-10.15a4.84,4.84,0,0,0-4.776-5.1.985.985,0,0,1,0-1.97,6.764,6.764,0,0,1,6.746,7.074V178.4a7.082,7.082,0,0,1-7.074,7.074Z" transform="translate(0 -72.158)" fill="#474a54"/>
      <path id="路径_9" data-name="路径 9" d="M324.425,90.99H318.4a.985.985,0,1,1,0-1.97h6.024a.985.985,0,1,1,0,1.97Zm2.465,2.769a.986.986,0,0,1-.985-.985V87.615a.985.985,0,1,1,1.97,0v5.159A.984.984,0,0,1,326.89,93.759Zm-10.974,0a.986.986,0,0,1-.985-.985V87.615a.985.985,0,0,1,1.97,0v5.159A.984.984,0,0,1,315.916,93.759Zm3.078,12.573a1.426,1.426,0,0,1-1.029-.435c-.025-.026-.048-.053-.071-.08l-2.59-3.329a.985.985,0,0,1,1.554-1.21l2.216,2.848,6.656-5.659a.985.985,0,0,1,1.277,1.5l-7.084,6.024a1.433,1.433,0,0,1-.929.341Z" transform="translate(-244.224)" fill="#474a54"/>
    </g>
    <rect id="矩形_271" data-name="矩形 271" width="40" height="40" transform="translate(-280 1118)" fill="none"/>
  </g>
</svg>
