<svg xmlns="http://www.w3.org/2000/svg" width="40" height="40" viewBox="0 0 40 40">
  <g id="组_80" data-name="组 80" transform="translate(210 -1136)">
    <g id="金币_84" data-name="金币 84" transform="translate(-255.583 1085.092)">
      <path id="路径_10" data-name="路径 10" d="M166,155.187a12.446,12.446,0,0,1-17.21,17.131A12.448,12.448,0,1,0,166,155.187Z" transform="translate(-93.399 -94.443)" fill="#467ef5" opacity="0.3"/>
      <path id="路径_11" data-name="路径 11" d="M65.927,84.6A13.344,13.344,0,1,1,79.272,71.252,13.36,13.36,0,0,1,65.927,84.6Zm0-24.9A11.553,11.553,0,1,0,77.481,71.252,11.566,11.566,0,0,0,65.927,59.7Z" fill="#474a54"/>
      <path id="路径_12" data-name="路径 12" d="M339.724,324.5h-3.4v-1.457h3.4a.9.9,0,1,0,0-1.791h-2.342l2.984-3.06a.9.9,0,0,0-1.282-1.249l-3.655,3.748-3.655-3.749a.9.9,0,1,0-1.282,1.249l2.984,3.06h-2.342a.9.9,0,0,0,0,1.791h3.4V324.5h-3.4a.9.9,0,0,0,0,1.791h3.4v2.467a.9.9,0,0,0,1.791,0v-2.466h3.4a.9.9,0,1,0,0-1.791Z" transform="translate(-269.561 -251.219)" fill="#474a54"/>
    </g>
    <rect id="矩形_272" data-name="矩形 272" width="40" height="40" transform="translate(-210 1136)" fill="none"/>
  </g>
</svg>
