<svg xmlns="http://www.w3.org/2000/svg" width="40" height="40" viewBox="0 0 40 40">
  <g id="组_81" data-name="组 81" transform="translate(78 -1223)">
    <g id="组_80" data-name="组 80">
      <g id="待付款_69" data-name="待付款 69" transform="translate(-145.038 1108.963)">
        <path id="路径_16" data-name="路径 16" d="M555.2,390.552h-9.63a3.514,3.514,0,0,1-3.514-3.514v-1.624a3.514,3.514,0,0,1,3.514-3.514h9.63Z" transform="translate(-453.816 -251.872)" fill="#467ef5" opacity="0.3"/>
        <path id="路径_17" data-name="路径 17" d="M97.853,121.037H76.626a4.593,4.593,0,0,0-4.588,4.588v17.512a4.593,4.593,0,0,0,4.588,4.588H97.855a4.593,4.593,0,0,0,4.588-4.588V125.625A4.6,4.6,0,0,0,97.853,121.037Zm0,24.571H76.626a2.473,2.473,0,0,1-2.471-2.471V125.625a2.473,2.473,0,0,1,2.471-2.471H97.855a2.473,2.473,0,0,1,2.471,2.471v3.342H91.754a4.579,4.579,0,0,0-4.573,4.574v1.624a4.58,4.58,0,0,0,4.573,4.574h8.572v3.4a2.476,2.476,0,0,1-2.472,2.469Zm2.471-7.987H91.752a2.458,2.458,0,0,1-2.455-2.457V133.54a2.459,2.459,0,0,1,2.455-2.457h8.572v6.537Z" fill="#474a54"/>
        <path id="路径_18" data-name="路径 18" d="M627.448,468.882m-1.375,0a1.375,1.375,0,1,0,1.375-1.375A1.375,1.375,0,0,0,626.073,468.882Z" transform="translate(-534.938 -334.528)" fill="#fff"/>
      </g>
      <rect id="矩形_273" data-name="矩形 273" width="40" height="40" transform="translate(-78 1223)" fill="none"/>
    </g>
  </g>
</svg>
