<svg xmlns="http://www.w3.org/2000/svg" width="40" height="40" viewBox="0 0 40 40">
  <g id="组_93" data-name="组 93" transform="translate(-952 -660)">
    <rect id="矩形_278" data-name="矩形 278" width="40" height="40" transform="translate(952 660)" fill="#fff" opacity="0"/>
    <path id="icon_weixin" d="M26.895,94.479a9,9,0,0,1,1,.061c-.9-4.2-5.387-7.313-10.507-7.313-5.725,0-10.413,3.9-10.413,8.856,0,2.861,1.56,5.208,4.167,7.03L10.1,106.246l3.64-1.825a17.837,17.837,0,0,0,3.648.523c.327,0,.651-.016.972-.042a7.754,7.754,0,0,1-.321-2.182C18.041,98.171,21.948,94.479,26.895,94.479Zm-5.673-3.035a1.61,1.61,0,1,1-1.61,1.61A1.61,1.61,0,0,1,21.222,91.445ZM13.936,94.7a1.61,1.61,0,1,1,1.61-1.61A1.61,1.61,0,0,1,13.936,94.7Zm22.389,7.932c0-4.163-4.166-7.557-8.845-7.557-4.955,0-8.857,3.394-8.857,7.557s3.9,7.557,8.857,7.557a13.078,13.078,0,0,0,3.124-.523l2.856,1.564-.783-2.6C34.769,107.057,36.326,104.977,36.326,102.629ZM24.76,101.462a1.146,1.146,0,1,1,1.146-1.146A1.146,1.146,0,0,1,24.76,101.462Zm5.725.065a1.146,1.146,0,1,1,1.146-1.146A1.146,1.146,0,0,1,30.484,101.527Z" transform="translate(950.023 580.772)" fill="#2aae67"/>
  </g>
</svg>
